<svg width="800" height="800" viewBox="0 0 1024 1024" class="icon" style="vertical-align:middle;fill:#000;overflow:hidden" xmlns="http://www.w3.org/2000/svg"><path d="M837.786 918.323H249.6c-63.386 0-114.79-51.405-114.79-114.79V324.915c0-63.385 51.404-114.79 114.79-114.79h588.186c63.385 0 114.79 51.405 114.79 114.79v478.669c0 63.386-51.405 114.74-114.79 114.74z" fill="#FF7D7B"/><path d="M952.832 780.34V323.02c0-71.065-57.19-116.48-111.974-112.742 14.643 17.818 30.361 51.559 30.361 114.586V808.09c0 21.35-3.737 70.195-40.806 109.568 67.891-1.485 122.419-62.362 122.419-137.319z" fill="#F75252"/><path d="M65.997 467.507c-8.5 0-15.36-6.86-15.36-15.36V434.79c0-8.499 6.86-15.36 15.36-15.36s15.36 6.861 15.36 15.36v17.357c0 8.448-6.861 15.36-15.36 15.36z" fill="#333"/><path d="M815.155 933.683H203.418c-84.224 0-152.73-68.505-152.73-152.73V520.705c0-8.5 6.86-15.36 15.36-15.36s15.36 6.86 15.36 15.36v260.198c0 67.277 54.733 122.01 122.01 122.01h611.737c67.277 0 122.01-54.733 122.01-122.01V287.898c0-67.277-54.733-122.01-122.01-122.01H203.418c-67.277 0-122.01 54.733-122.01 122.01v51.148c0 8.5-6.86 15.36-15.36 15.36s-15.36-6.86-15.36-15.36v-51.148c0-84.224 68.506-152.73 152.73-152.73h611.737c84.224 0 152.73 68.506 152.73 152.73v493.004c.051 84.276-68.506 152.781-152.73 152.781z" fill="#333"/><path d="M349.85 288.46a32.768 32.768 0 0 1-32.768-32.767V116.992a32.768 32.768 0 0 1 32.768-32.768 32.768 32.768 0 0 1 32.768 32.768v138.7c0 18.126-14.644 32.769-32.768 32.769zm318.873 0a32.768 32.768 0 0 1-32.768-32.767V116.992a32.768 32.768 0 0 1 32.768-32.768 32.768 32.768 0 0 1 32.768 32.768v138.7c.051 18.126-14.643 32.769-32.768 32.769z" fill="#76BFFF"/><path d="M349.85 303.82c-26.573 0-48.128-21.606-48.128-48.178v-138.65c0-26.573 21.606-48.18 48.128-48.18 26.572 0 48.179 21.607 48.179 48.18v138.7c-.051 26.522-21.607 48.129-48.18 48.129zm0-204.287c-9.626 0-17.408 7.833-17.408 17.459v138.7c0 9.626 7.833 17.46 17.408 17.46 9.625 0 17.459-7.834 17.459-17.46v-138.7c-.051-9.626-7.834-17.46-17.46-17.46z" fill="#333"/><path d="M251.494 551.68a32.768 32.768 0 0 1 32.768-32.768h64.82a32.768 32.768 0 0 1 32.768 32.768 32.768 32.768 0 0 1-32.768 32.768h-64.82c-18.124 0-32.768-14.643-32.768-32.768zm0 141.722a32.768 32.768 0 0 1 32.768-32.768h64.82a32.768 32.768 0 0 1 32.768 32.768 32.768 32.768 0 0 1-32.768 32.768h-64.82c-18.124 0-32.768-14.644-32.768-32.768zM441.702 551.68a32.768 32.768 0 0 1 32.768-32.768h64.82a32.768 32.768 0 0 1 32.768 32.768 32.768 32.768 0 0 1-32.768 32.768h-64.768c-18.125 0-32.82-14.643-32.82-32.768zm0 141.722a32.768 32.768 0 0 1 32.768-32.768h64.82a32.768 32.768 0 0 1 32.768 32.768 32.768 32.768 0 0 1-32.768 32.768h-64.768c-18.125 0-32.82-14.644-32.82-32.768zm191.13-141.722a32.768 32.768 0 0 1 32.768-32.768h64.82a32.768 32.768 0 0 1 32.767 32.768 32.768 32.768 0 0 1-32.768 32.768H665.6a32.768 32.768 0 0 1-32.768-32.768zm0 141.722a32.768 32.768 0 0 1 32.768-32.768h64.82a32.768 32.768 0 0 1 32.767 32.768 32.768 32.768 0 0 1-32.768 32.768H665.6a32.768 32.768 0 0 1-32.768-32.768z" fill="#ECD300"/><path d="M349.082 599.808h-64.82c-26.572 0-48.128-21.606-48.128-48.18s21.607-48.127 48.128-48.127h64.82c26.572 0 48.128 21.606 48.128 48.128.05 26.573-21.556 48.179-48.128 48.179zm-64.82-65.587c-9.625 0-17.408 7.833-17.408 17.408 0 9.625 7.834 17.459 17.408 17.459h64.82a17.439 17.439 0 0 0 0-34.867h-64.82zm64.82 208.742h-64.82c-26.572 0-48.128-21.606-48.128-48.179s21.607-48.128 48.128-48.128h64.82c26.572 0 48.128 21.606 48.128 48.128.05 26.573-21.556 48.18-48.128 48.18zm-64.82-65.587c-9.625 0-17.408 7.834-17.408 17.408 0 9.626 7.834 17.46 17.408 17.46h64.82a17.439 17.439 0 0 0 0-34.868h-64.82zm257.076-77.568h-64.82c-26.572 0-48.128-21.606-48.128-48.18s21.607-48.127 48.128-48.127h64.82c26.572 0 48.128 21.606 48.128 48.128 0 26.573-21.607 48.179-48.128 48.179zm-64.82-65.587c-9.625 0-17.408 7.833-17.408 17.408 0 9.625 7.834 17.459 17.408 17.459h64.82a17.439 17.439 0 0 0 0-34.867h-64.82zm64.82 208.742h-64.82c-26.572 0-48.128-21.606-48.128-48.179s21.607-48.128 48.128-48.128h64.82c26.572 0 48.128 21.606 48.128 48.128 0 26.573-21.607 48.18-48.128 48.18zm-64.82-65.587c-9.625 0-17.408 7.834-17.408 17.408 0 9.626 7.834 17.46 17.408 17.46h64.82a17.439 17.439 0 0 0 0-34.868h-64.82zM731.7 599.808H666.88c-26.573 0-48.128-21.606-48.128-48.18s21.606-48.127 48.128-48.127h64.82c26.572 0 48.178 21.606 48.178 48.128-.05 26.573-21.657 48.179-48.179 48.179zm-64.87-65.587c-9.626 0-17.408 7.833-17.408 17.408 0 9.625 7.833 17.459 17.408 17.459h64.819c9.626 0 17.46-7.834 17.46-17.46 0-9.625-7.834-17.407-17.46-17.407h-64.82zm64.87 208.742H666.88c-26.573 0-48.128-21.606-48.128-48.179s21.606-48.128 48.128-48.128h64.82c26.572 0 48.178 21.606 48.178 48.128-.05 26.573-21.657 48.18-48.179 48.18zm-64.87-65.587c-9.626 0-17.408 7.834-17.408 17.408 0 9.626 7.833 17.46 17.408 17.46h64.819c9.626 0 17.46-7.834 17.46-17.46 0-9.626-7.834-17.408-17.46-17.408h-64.82zm-1.127-373.555c-26.572 0-48.128-21.607-48.128-48.18V116.993c0-26.573 21.607-48.18 48.128-48.18 26.573 0 48.18 21.607 48.18 48.18v138.7c0 26.522-21.607 48.129-48.18 48.129zm0-204.288c-9.625 0-17.408 7.833-17.408 17.459v138.7c0 9.626 7.834 17.46 17.408 17.46 9.626 0 17.46-7.834 17.46-17.46v-138.7c0-9.626-7.834-17.46-17.46-17.46zM861.03 372.94H162.202c-8.5 0-15.36-6.861-15.36-15.36s6.86-15.36 15.36-15.36H861.03c8.5 0 15.36 6.86 15.36 15.36s-6.86 15.36-15.36 15.36z" fill="#333"/><path d="M191.59 544.102a12.8 12.8 0 0 1-12.8-12.8v-75.776c0-20.428 16.64-37.068 37.07-37.068h41.778a12.8 12.8 0 0 1 0 25.6H215.86c-6.297 0-11.469 5.12-11.469 11.468v75.725c0 7.117-5.734 12.851-12.8 12.851zm0 59.034a12.8 12.8 0 0 1-12.8-12.8v-15.923a12.8 12.8 0 0 1 25.6 0v15.923a12.8 12.8 0 0 1-12.8 12.8z" fill="#FFF"/></svg>