<svg xmlns="http://www.w3.org/2000/svg" viewBox="0 0 512 512" xml:space="preserve"><circle style="fill:#faa85f" cx="376" cy="400" r="112"/><path style="fill:#fff" d="m368 440-40 8 8-40z"/><path transform="rotate(134.999 391.98 384.02)" style="fill:#fff" d="M346.723 361.395h90.511v45.248h-90.511z"/><path style="fill:#00384e" d="M256.352 480H56V32h192v128h128v96c11.008 0 21.696 1.36 32 3.712V137.376L270.624 0H24v512h261.696c-11.312-9.136-21.232-19.904-29.344-32zM280 54.624 353.376 128H280V54.624z"/><path style="fill:#72c6ef" d="M232 400c0-68.384 47.968-125.68 112-140.288V160h-96V64H88v384h152.4c-5.344-15.04-8.4-31.152-8.4-48z"/><path style="fill:#00384d" d="M136 240h160v32H136zM268.976 304H136v32h111.2a143.777 143.777 0 0 1 21.776-32zM136 368v32h96c0-11.008 1.36-21.696 3.712-32H136z"/></svg>